# xmcd
#
# Track frame offsets:
#	150
#	17119
#	27620
#	38933
#	53817
#	73900
#	87518
#	119490
#	145688
#	166114
#
# Disc length: 2430 seconds
#
# Revision: 0
# Processed by: cddbd v1.5.2PL0 Copyright (c) Steve Scherf et al.
# Submitted via: dBpowerAMP V4.0
#
DISCID=8c097c0a
DTITLE=Zak Morgan - When Bull Frogs Croak
DYEAR=1900
DGENRE=Comedy
TTITLE0=When Bullfrogs Croak
TTITLE1=The Cribling
TTITLE2=The Pox of Chicken
TTITLE3=The Unicorn
TTITLE4=It's a drag to be a dragon
TTITLE5=The king of fruits
TTITLE6=Insect City
TTITLE7=When Cordelia Played
TTITLE8=Peace Train
TTITLE9=Sabina
EXTD=Kid's music
EXTT0=
EXTT1=
EXTT2=
EXTT3=
EXTT4=
EXTT5=
EXTT6=
EXTT7=
EXTT8=
EXTT9=
PLAYORDER=
